<svg xmlns="http://www.w3.org/2000/svg" xmlns:xlink="http://www.w3.org/1999/xlink" viewBox="0 0 849 664">
	<g id="shadow_Image" data-name="shadow Image">
    <image id="shadow_Image-2" data-name="shadow Image" width="842" height="662" transform="translate(2)" xlink:href="cap1.png"/>
    </g>
	<g id="visor" class="colorize" style="isolation: isolate; stroke: none; cursor: pointer">
    <path d="M188,406c8.23-.13,16.45.62,22,2,12.51,3.1,29.74-.54,40,2,13.55,3.36,25.05-1.5,38,2,4,1.09,6.56,4.85,10,6,3.82,1.27,11.16,1.29,14,2,3.31.82,18.52,2.27,20,2,3-.55,8.71-3.72,14-2,3.67,1.19,7.65,4.87,12,6,18.79,4.89,37.48,3,56,8,13.32,3.59,28.81,6.46,42,10l20,3c9.29,4,21.86,6.91,32,10l12,2c24,10.29,54.16,16,80,23,13.19,3.55,24.41,2.45,38,6,3,.79,7,3.23,10,4,10.74,2.73,25.76-2,34-4,8-2,17.32,1.68,24,3a21.58,21.58,0,0,1,1,7c-4.64,3.11-6.68,7.5-10,12-4.89,6.63-13.15,10.28-19,16-7.71,7.53-13.07,17.74-21,25-9.17,8.4-20.54,13.88-30,22-20.38,17.49-41.44,38.25-65,52-14.11,8.23-30.7,13.41-46,20-6.58,2.83-12.29,1.08-20,3-29.71,7.4-76,1-102-8-12.28-4.25-23.7-4.51-36-9-17-6.23-36.88-14.35-53-22-8.18-3.88-17.08-2.46-25-6a714.29,714.29,0,0,0-112-39H150c-13-3.18-39-5.86-52-2-2.37.71-5.35,3.28-8,4-11.93,3.25-25.53.93-36,5-3.79,1.47-18,7.35-21,10-7.66,6.84-3,8.94-19,9-1-.8-.27-.35-2-1-1.71-2.73-2.54-2.5-3-7-.83-1.66-.24-2.59,0-6,7.1-4.79,12-13,18-19s13.47-10.19,20-16c1-.86,1.06-3.07,2-4,4.36-4.32,9.66-7.66,14-12,2.29-2.29,3.62-5.82,6-8,2.88-2.63,7.06-3.39,10-6,2.39-2.13,3.72-5.72,6-8,9.67-9.67,20.33-18.33,30-28,5-4.95,8.84-11.28,14-16,2.88-2.63,7.06-3.39,10-6,3.09-2.76,5.06-7.06,8-10s7.24-4.91,10-8c7.63-8.57,13.28-18.61,21-27C182.17,408.07,185.69,407.75,188,406Z" fill-rule="evenodd"/>
  </g>
  <g id="crown" class="colorize" style="isolation: isolate; stroke: none; cursor: pointer">
    <path d="M513,32c-.47-8.16-1.79-11.94,0-19,2.36-1.59,4.6-4.77,7-6,11.27-5.76,39.15-4.35,48,2,6.93,5,3.91,11.23,8,18,7.5,4.38,22.47,2.35,32,5,13.92,3.87,29.06,9.33,41,14,9.72,3.8,18.83,4.52,28,9,69.09,33.79,106.84,61.63,139,133,13.07,29,12.59,68.43,21,102v52c0,25.92,3.59,59.65-2,82-2.68,10.71.15,25.49-2,34-3.18,12.59-.66,33.48-14,35-7.23,4.63-18.36.73-28,3-3.23.76-8.45,3.35-14,2-3.61-.88-9.92-3.42-16-2-8.43,2-21.56,2.06-30,0H719c-7.18-2.1-26.18-10.95-38-8-39.82,10-87.15-8.4-121-18-9-2.54-14.09-1.3-23-4-5.73-1.73-15.3-6.17-21-8-13-4.18-23.76-4-37-8-2.21-.67-4.79-3.34-7-4h-7c-9.37-2.61-21.94-5.49-31-8-21.42-5.94-45.53-6.59-66-12H357c-3.85-1.06-7.86-4.95-11-6-5.25-1.76-11.29,1.4-14,2-1.16.26-18-1.2-21-2l-3-2H297c-3-1-5.62-5-9-6H274c-6.8-1.67-21.19-2.35-28-4-12.54-3-29.73.49-40-2-6.17-1.5-15.41,1.9-20-1-4.51-1.44-5.13-4.16-8-7-.4-19.05,3.84-37.38,8-54,3.39-13.55-1.29-25,2-38,4.22-16.74,5.27-35,10-52s11.12-36.56,17-52c2.18-5.72,1.49-10.44,4-16,30.16-66.89,87.33-113.42,162-136h7c11.52-3.24,27.18-6.82,39-10h13C461.29,34.35,487.64,32.1,513,32Z" fill-rule="evenodd"/>
  </g>
</svg>
